<?xml version="1.0" encoding="UTF-8"?>
<svg width="39" height="39" viewBox="0 0 39 39" fill="none" xmlns="http://www.w3.org/2000/svg">
<path d="M2 0.25H37C37.9665 0.25 38.75 1.0335 38.75 2V37C38.75 37.9665 37.9665 38.75 37 38.75H2C1.0335 38.75 0.25 37.9665 0.25 37V2C0.25 1.0335 1.0335 0.25 2 0.25Z" fill="white" stroke="#DDDDDD" stroke-width="0.5"/>
<path fill-rule="evenodd" clip-rule="evenodd" d="M17.4306 22.4893H10.546L8.93416 26.5134H7L12.9176 12H15.105L20.9996 26.5134H19.0424L17.4306 22.4893ZM16.7629 20.84L14.7136 15.6943L13.9998 13.6712H13.9538L13.286 15.6284L11.2137 20.84H16.7629ZM32.079 25.238C32.386 25.238 32.693 25.2014 33 25.1281L32.8849 26.5134C32.4551 26.66 31.9945 26.7333 31.5033 26.7333C30.9047 26.7333 30.4326 26.6087 30.0873 26.3595C29.7419 26.1103 29.5231 25.6925 29.431 25.1061C29.078 25.6192 28.5599 26.0187 27.8768 26.3045C27.1937 26.5904 26.4761 26.7333 25.7239 26.7333C24.5879 26.7333 23.6516 26.4805 22.9148 25.9747C22.1779 25.4689 21.8095 24.7396 21.8095 23.7867C21.8095 22.951 22.1933 22.229 22.9608 21.6206C23.7283 21.0123 24.8412 20.5908 26.2995 20.3562L29.3619 19.8724V19.2567C29.3619 18.5237 29.124 17.9373 28.6481 17.4975C28.1723 17.0577 27.5122 16.8378 26.6679 16.8378C25.9004 16.8378 25.2365 17.0137 24.6762 17.3656C24.1159 17.7174 23.6823 18.2378 23.3753 18.9269L22.0167 17.9813C22.3238 17.1603 22.8956 16.508 23.7322 16.0242C24.5688 15.5404 25.5473 15.2985 26.6679 15.2985C28.0341 15.2985 29.1317 15.6137 29.9606 16.2441C30.7895 16.8745 31.204 17.8054 31.204 19.0368V24.4464C31.204 24.7102 31.2731 24.9082 31.4112 25.0401C31.5494 25.172 31.772 25.238 32.079 25.238ZM25.816 25.194C26.7831 25.194 27.6158 24.9741 28.3143 24.5343C29.0127 24.0945 29.3619 23.5228 29.3619 22.8191V21.3018L26.7831 21.7636C25.7546 21.9395 24.9871 22.1924 24.4805 22.5222C23.9739 22.8521 23.7206 23.2736 23.7206 23.7867C23.7206 24.2411 23.9049 24.5893 24.2733 24.8312C24.6417 25.0731 25.1559 25.194 25.816 25.194Z" fill="#4A4A4A"/>
</svg>
