<?xml version="1.0" encoding="UTF-8"?>
<svg width="39" height="39" viewBox="0 0 39 39" fill="none" xmlns="http://www.w3.org/2000/svg">
<rect width="39" height="39" rx="2" fill="white"/>
<path d="M23.5236 25.7683C23.3852 25.3743 23.2968 24.7911 23.2584 24.0187C22.7739 24.6521 22.1549 25.1426 21.4014 25.4902C20.6555 25.8301 19.8635 26 19.0254 26C17.8258 26 16.8531 25.664 16.1073 24.992C15.3691 24.32 15 23.4703 15 22.443C15 21.2225 15.5037 20.257 16.511 19.5463C17.526 18.8357 18.9369 18.4804 20.7439 18.4804H23.2468V17.0553C23.2468 16.1592 22.97 15.4563 22.4164 14.9465C21.8704 14.429 21.0707 14.1702 20.0173 14.1702C19.0561 14.1702 18.2603 14.4174 17.6298 14.9118C16.9992 15.4061 16.684 16.0009 16.684 16.6961L15.2999 16.6845C15.2999 15.6881 15.7612 14.8268 16.684 14.1007C17.6067 13.3669 18.7409 13 20.0865 13C21.4783 13 22.574 13.3515 23.3737 14.0544C24.1811 14.7496 24.5963 15.7228 24.6194 16.9742V22.9064C24.6194 24.1191 24.7463 25.0267 25 25.6292V25.7683H23.5236ZM19.1869 24.7718C20.1096 24.7718 20.9323 24.5478 21.6551 24.0998C22.3856 23.6518 22.9162 23.0532 23.2468 22.3039V19.5463H20.7785C19.4022 19.5618 18.3256 19.8167 17.549 20.3111C16.7724 20.7977 16.3841 21.4697 16.3841 22.3271C16.3841 23.03 16.6417 23.6132 17.1569 24.0766C17.6797 24.5401 18.3564 24.7718 19.1869 24.7718Z" fill="#4A4A4A"/>
</svg>
