<?xml version="1.0" encoding="UTF-8"?>
<svg width="39" height="39" viewBox="0 0 39 39" fill="none" xmlns="http://www.w3.org/2000/svg">
<path d="M2 0.25H37C37.9665 0.25 38.75 1.0335 38.75 2V37C38.75 37.9665 37.9665 38.75 37 38.75H2C1.0335 38.75 0.25 37.9665 0.25 37V2C0.25 1.0335 1.0335 0.25 2 0.25Z" fill="white" stroke="#DDDDDD" stroke-width="0.5"/>
<rect x="7.5" y="21.5" width="20" height="1" fill="#D8D8D8" stroke="#979797"/>
<rect x="7.5" y="25.5" width="24" height="1" fill="#D8D8D8" stroke="#979797"/>
<path d="M10.186 17.3154C10.186 17.6523 10.1323 17.9445 10.0249 18.1919C9.91911 18.4377 9.77018 18.633 9.57812 18.7778L10.1885 19.2539L9.78809 19.6152L9.03125 19.0171C8.93197 19.0382 8.82536 19.0488 8.71143 19.0488C8.42497 19.0488 8.16862 18.9788 7.94238 18.8389C7.71777 18.6973 7.54362 18.4963 7.41992 18.2358C7.29785 17.9754 7.236 17.6751 7.23438 17.335V17.1348C7.23438 16.7881 7.29541 16.4821 7.41748 16.2168C7.54118 15.9515 7.71452 15.7489 7.9375 15.6089C8.16211 15.4673 8.41846 15.3965 8.70654 15.3965C8.99951 15.3965 9.25749 15.4665 9.48047 15.6064C9.70508 15.7448 9.87842 15.945 10.0005 16.207C10.1226 16.4674 10.1844 16.771 10.186 17.1177V17.3154ZM9.56592 17.1299C9.56592 16.7295 9.49105 16.4259 9.34131 16.2192C9.19157 16.0125 8.97998 15.9092 8.70654 15.9092C8.44124 15.9092 8.23291 16.0142 8.08154 16.2241C7.9318 16.4325 7.85531 16.7271 7.85205 17.1079V17.3154C7.85205 17.6995 7.92692 17.9998 8.07666 18.2163C8.22803 18.4328 8.43962 18.541 8.71143 18.541C8.98649 18.541 9.19727 18.4368 9.34375 18.2285C9.49186 18.0202 9.56592 17.7158 9.56592 17.3154V17.1299ZM12.3564 18.7412C12.1823 18.9463 11.9349 19.0488 11.6143 19.0488C11.3278 19.0488 11.1105 18.965 10.9624 18.7974C10.8159 18.6297 10.7427 18.3872 10.7427 18.0698V16.3584H11.3359V18.0625C11.3359 18.3978 11.4751 18.5654 11.7534 18.5654C12.0415 18.5654 12.236 18.4621 12.3369 18.2554V16.3584H12.9302V19H12.3711L12.3564 18.7412ZM14.6978 19.0488C14.3218 19.0488 14.0166 18.9308 13.7822 18.6948C13.5495 18.4572 13.4331 18.1414 13.4331 17.7476V17.6743C13.4331 17.4106 13.4836 17.1755 13.5845 16.9688C13.687 16.7604 13.8302 16.5985 14.0142 16.4829C14.1981 16.3674 14.4032 16.3096 14.6294 16.3096C14.9891 16.3096 15.2666 16.4243 15.4619 16.6538C15.6589 16.8833 15.7573 17.208 15.7573 17.6279V17.8672H14.0312C14.0492 18.0853 14.1216 18.2578 14.2485 18.3848C14.3771 18.5117 14.5382 18.5752 14.7319 18.5752C15.0037 18.5752 15.2251 18.4653 15.396 18.2456L15.7158 18.5508C15.61 18.7087 15.4684 18.8315 15.291 18.9194C15.1152 19.0057 14.9175 19.0488 14.6978 19.0488ZM14.627 16.7856C14.4642 16.7856 14.3324 16.8426 14.2314 16.9565C14.1322 17.0705 14.0687 17.2292 14.041 17.4326H15.1714V17.3887C15.1584 17.1901 15.1055 17.0404 15.0127 16.9395C14.9199 16.8369 14.7913 16.7856 14.627 16.7856ZM17.7007 18.2822C17.7007 18.1764 17.6567 18.0959 17.5688 18.0405C17.4826 17.9852 17.3385 17.9364 17.1367 17.894C16.9349 17.8517 16.7664 17.798 16.6313 17.7329C16.3351 17.5897 16.187 17.3822 16.187 17.1104C16.187 16.8825 16.283 16.6921 16.4751 16.5391C16.6672 16.3861 16.9113 16.3096 17.2075 16.3096C17.5233 16.3096 17.778 16.3877 17.9717 16.5439C18.167 16.7002 18.2646 16.9028 18.2646 17.1519H17.6714C17.6714 17.0379 17.6291 16.9435 17.5444 16.8687C17.4598 16.7922 17.3475 16.7539 17.2075 16.7539C17.0773 16.7539 16.9707 16.784 16.8877 16.8442C16.8063 16.9045 16.7656 16.985 16.7656 17.0859C16.7656 17.1771 16.8039 17.2479 16.8804 17.2983C16.9569 17.3488 17.1115 17.4001 17.3442 17.4521C17.577 17.5026 17.7593 17.5636 17.8911 17.6353C18.0246 17.7052 18.123 17.7899 18.1865 17.8892C18.2516 17.9884 18.2842 18.1089 18.2842 18.2505C18.2842 18.4881 18.1857 18.681 17.9888 18.8291C17.7918 18.9756 17.5339 19.0488 17.2148 19.0488C16.9984 19.0488 16.8055 19.0098 16.6362 18.9316C16.467 18.8535 16.3351 18.7461 16.2407 18.6094C16.1463 18.4727 16.0991 18.3254 16.0991 18.1675H16.6753C16.6834 18.3075 16.7363 18.4157 16.834 18.4922C16.9316 18.5671 17.061 18.6045 17.2222 18.6045C17.3784 18.6045 17.4972 18.5752 17.5786 18.5166C17.66 18.4564 17.7007 18.3783 17.7007 18.2822ZM19.5464 15.7163V16.3584H20.0127V16.7979H19.5464V18.2725C19.5464 18.3734 19.5659 18.4466 19.605 18.4922C19.6457 18.5361 19.7173 18.5581 19.8198 18.5581C19.8882 18.5581 19.9574 18.55 20.0273 18.5337V18.9927C19.8923 19.0301 19.762 19.0488 19.6367 19.0488C19.181 19.0488 18.9531 18.7974 18.9531 18.2944V16.7979H18.5186V16.3584H18.9531V15.7163H19.5464ZM21.0991 19H20.5059V16.3584H21.0991V19ZM20.4692 15.6724C20.4692 15.5812 20.4977 15.5055 20.5547 15.4453C20.6133 15.3851 20.6963 15.355 20.8037 15.355C20.9111 15.355 20.9941 15.3851 21.0527 15.4453C21.1113 15.5055 21.1406 15.5812 21.1406 15.6724C21.1406 15.7619 21.1113 15.8368 21.0527 15.897C20.9941 15.9556 20.9111 15.9849 20.8037 15.9849C20.6963 15.9849 20.6133 15.9556 20.5547 15.897C20.4977 15.8368 20.4692 15.7619 20.4692 15.6724ZM21.6362 17.6548C21.6362 17.396 21.6875 17.1632 21.79 16.9565C21.8926 16.7482 22.0366 16.5887 22.2222 16.478C22.4077 16.3657 22.6209 16.3096 22.8618 16.3096C23.2183 16.3096 23.5072 16.4243 23.7285 16.6538C23.9515 16.8833 24.0719 17.1877 24.0898 17.5669L24.0923 17.7061C24.0923 17.9665 24.0418 18.1992 23.9409 18.4043C23.8416 18.6094 23.6984 18.7681 23.5112 18.8804C23.3257 18.9927 23.1108 19.0488 22.8667 19.0488C22.494 19.0488 22.1953 18.9251 21.9707 18.6777C21.7477 18.4287 21.6362 18.0975 21.6362 17.6841V17.6548ZM22.2295 17.7061C22.2295 17.9779 22.2856 18.1911 22.3979 18.3457C22.5103 18.4987 22.6665 18.5752 22.8667 18.5752C23.0669 18.5752 23.2223 18.4971 23.333 18.3408C23.4453 18.1846 23.5015 17.9559 23.5015 17.6548C23.5015 17.3879 23.4437 17.1763 23.3281 17.02C23.2142 16.8638 23.0588 16.7856 22.8618 16.7856C22.6681 16.7856 22.5143 16.863 22.4004 17.0176C22.2865 17.1706 22.2295 17.4001 22.2295 17.7061ZM25.1445 16.3584L25.1616 16.6636C25.3569 16.4276 25.6133 16.3096 25.9307 16.3096C26.4808 16.3096 26.7607 16.6245 26.7705 17.2544V19H26.1772V17.2886C26.1772 17.1209 26.1406 16.9972 26.0674 16.9175C25.9958 16.8361 25.8778 16.7954 25.7134 16.7954C25.4741 16.7954 25.2959 16.9036 25.1787 17.1201V19H24.5854V16.3584H25.1445Z" fill="#4A4A4A"/>
</svg>
