<?xml version="1.0" encoding="UTF-8"?>
<svg width="10" height="15" viewBox="0 0 10 15" fill="none" xmlns="http://www.w3.org/2000/svg">
<path fill-rule="evenodd" clip-rule="evenodd" d="M1.78571 0C0.803571 0 0 0.803571 0 1.78571C0 2.76786 0.803571 3.57143 1.78571 3.57143C2.76786 3.57143 3.57143 2.76786 3.57143 1.78571C3.57143 0.803571 2.76786 0 1.78571 0ZM0 7.14286C0 6.16071 0.803571 5.35714 1.78571 5.35714C2.76786 5.35714 3.57143 6.16071 3.57143 7.14286C3.57143 8.125 2.76786 8.92857 1.78571 8.92857C0.803571 8.92857 0 8.125 0 7.14286ZM1.78571 14.2857C2.76786 14.2857 3.57143 13.4821 3.57143 12.5C3.57143 11.5179 2.76786 10.7143 1.78571 10.7143C0.803571 10.7143 0 11.5179 0 12.5C0 13.4821 0.803571 14.2857 1.78571 14.2857ZM8.92857 1.78571C8.92857 2.76786 8.125 3.57143 7.14286 3.57143C6.16071 3.57143 5.35714 2.76786 5.35714 1.78571C5.35714 0.803571 6.16071 0 7.14286 0C8.125 0 8.92857 0.803571 8.92857 1.78571ZM7.14286 5.35714C6.16071 5.35714 5.35714 6.16071 5.35714 7.14286C5.35714 8.125 6.16071 8.92857 7.14286 8.92857C8.125 8.92857 8.92857 8.125 8.92857 7.14286C8.92857 6.16071 8.125 5.35714 7.14286 5.35714ZM5.35714 12.5C5.35714 11.5179 6.16071 10.7143 7.14286 10.7143C8.125 10.7143 8.92857 11.5179 8.92857 12.5C8.92857 13.4821 8.125 14.2857 7.14286 14.2857C6.16071 14.2857 5.35714 13.4821 5.35714 12.5Z" fill="#97A0BF"/>
</svg>
