<?xml version="1.0" encoding="UTF-8"?>
<svg width="15" height="15" viewBox="0 0 15 15" fill="none" xmlns="http://www.w3.org/2000/svg">
<path fill-rule="evenodd" clip-rule="evenodd" d="M11.875 5L9.375 7.5H11.25C11.25 9.56875 9.56875 11.25 7.5 11.25C6.86875 11.25 6.26875 11.0938 5.75 10.8125L4.8375 11.725C5.60625 12.2125 6.51875 12.5 7.5 12.5C10.2625 12.5 12.5 10.2625 12.5 7.5H14.375L11.875 5ZM3.75 7.5C3.75 5.43125 5.43125 3.75 7.5 3.75C8.13125 3.75 8.73125 3.90625 9.25 4.1875L10.1625 3.275C9.39375 2.7875 8.48125 2.5 7.5 2.5C4.7375 2.5 2.5 4.7375 2.5 7.5H0.625L3.125 10L5.625 7.5H3.75Z" fill="#97A0BF"/>
</svg>

