<?xml version="1.0" encoding="UTF-8"?>
<svg width="15" height="15" viewBox="0 0 15 15" fill="none" xmlns="http://www.w3.org/2000/svg">
<path fill-rule="evenodd" clip-rule="evenodd" d="M8.125 1.875C5.01875 1.875 2.5 4.39375 2.5 7.5H0.625L3.05625 9.93125L3.1 10.0188L5.625 7.5H3.75C3.75 5.08125 5.70625 3.125 8.125 3.125C10.5437 3.125 12.5 5.08125 12.5 7.5C12.5 9.91875 10.5437 11.875 8.125 11.875C6.91875 11.875 5.825 11.3812 5.0375 10.5875L4.15 11.475C5.16875 12.4937 6.56875 13.125 8.125 13.125C11.2312 13.125 13.75 10.6062 13.75 7.5C13.75 4.39375 11.2312 1.875 8.125 1.875ZM7.5 5V8.125L10.175 9.7125L10.625 8.95625L8.4375 7.65625V5H7.5Z" fill="#97A0BF"/>
</svg>
