<?xml version="1.0" encoding="UTF-8"?>
<svg width="34" height="8" viewBox="0 0 34 8" fill="none" xmlns="http://www.w3.org/2000/svg">
<path fill-rule="evenodd" clip-rule="evenodd" d="M4.06707 0C1.82196 0 0 1.79091 0 4C0 6.20909 1.82196 8 4.06707 8C6.31217 8 8.13043 6.20727 8.13043 4C8.13043 1.79273 6.31217 0 4.06707 0ZM17.0019 0C14.7568 0 12.9348 1.79091 12.9348 4C12.9348 6.20909 14.7568 8 17.0019 8C19.247 8 21.0652 6.20909 21.0652 4C21.0652 1.79091 19.247 0 17.0019 0ZM25.8696 4C25.8696 1.79091 27.6916 0 29.9367 0C32.1818 0 34 1.79091 34 4C34 6.20909 32.1818 8 29.9367 8C27.6916 8 25.8696 6.20909 25.8696 4Z" fill="#97A0BF"/>
</svg>
