<?xml version="1.0" encoding="UTF-8"?>
<svg width="29" height="29" viewBox="0 0 29 29" fill="none" xmlns="http://www.w3.org/2000/svg">
<path fill-rule="evenodd" clip-rule="evenodd" d="M21.75 19.4303C20.8317 19.4303 20.01 19.7928 19.3817 20.3607L10.7663 15.3462C10.8267 15.0682 10.875 14.7903 10.875 14.5003C10.875 14.2103 10.8267 13.9324 10.7663 13.6545L19.285 8.68824C19.9375 9.29241 20.7954 9.66699 21.75 9.66699C23.7558 9.66699 25.375 8.04783 25.375 6.04199C25.375 4.03616 23.7558 2.41699 21.75 2.41699C19.7442 2.41699 18.125 4.03616 18.125 6.04199C18.125 6.33199 18.1733 6.60991 18.2338 6.88783L9.715 11.8541C9.0625 11.2499 8.20458 10.8753 7.25 10.8753C5.24417 10.8753 3.625 12.4945 3.625 14.5003C3.625 16.5062 5.24417 18.1253 7.25 18.1253C8.20458 18.1253 9.0625 17.7507 9.715 17.1466L18.3183 22.1732C18.2579 22.427 18.2217 22.6928 18.2217 22.9587C18.2217 24.9041 19.8046 26.487 21.75 26.487C23.6954 26.487 25.2783 24.9041 25.2783 22.9587C25.2783 21.0132 23.6954 19.4303 21.75 19.4303Z" fill="#97A0BF"/>
</svg>
